<svg xmlns="http://www.w3.org/2000/svg" viewBox="0 0 512 103" fill="#0080FF">
  <path d="M87.01,55.01c-3.79,0-7.51-0.91-10.87-2.66c-3.35-1.75-6.26-4.31-8.53-7.5s-3.97-6.96-4.57-10.95c-0.6-3.99-0.06-8.06,1.56-11.79c1.62-3.73,4.22-6.97,7.5-9.38c3.28-2.41,7.14-4.01,11.19-4.66c4.05-0.65,8.21-0.33,12.08,0.92c3.88,1.25,7.33,3.37,10.01,6.17v-5.28h11.8v50.26H105.38v-5.28c-2.68,2.8-6.13,4.93-10.01,6.17c-3.88,1.25-8.03,1.57-12.08,0.92c-0.96-0.15-1.91-0.37-2.84-0.63C79.17,60.82,83.06,55.01,87.01,55.01z M102.99,27.48c0-2.21-0.66-4.37-1.91-6.21c-1.24-1.84-3-3.28-5.06-4.15c-2.06-0.87-4.33-1.13-6.54-0.75c-2.21,0.38-4.26,1.37-5.91,2.85c-1.65,1.48-2.83,3.41-3.38,5.56c-0.55,2.15-0.46,4.41,0.26,6.51c0.72,2.1,2.04,3.98,3.81,5.41c1.77,1.44,3.92,2.37,6.17,2.68c0.48,0.07,0.97,0.1,1.45,0.1c1.76,0,3.48-0.43,5.02-1.25c1.54-0.82,2.87-1.99,3.87-3.42c1-1.43,1.65-3.07,1.9-4.79C102.9,28.3,102.99,27.48,102.99,27.48z"/>
  <path d="M51.9,102.99l-0.03-24.65H39.7v0c-0.02-6.75-0.02-12.29-0.02-12.29c0-10.66,8.64-19.3,19.29-19.3h0.02h15.13V34.58H51.89c-24.16,0-43.74,19.59-43.74,43.75v24.66H0v12.17l8.15,0c0,0,0-8.15,0-8.15c0-5.03,4.08-9.11,9.11-9.11s9.11,4.08,9.11,9.11c0,0,0,8.15,0,8.15h8.15V78.34h17.39L51.9,102.99z"/>
  <path d="M133.21,60.93V10.88h11.8v50.05H133.21z"/>
  <path d="M183.46,16.33c-1.37-1.34-3.2-2.09-5.12-2.1c-1.94,0-3.8,0.77-5.17,2.12c-1.36,1.36-2.14,3.22-2.14,5.15c0,1.95,0.77,3.82,2.14,5.19c1.36,1.38,3.22,2.15,5.16,2.15c1.95,0,3.82-0.77,5.19-2.15C186.26,23.82,186.27,19.12,183.46,16.33z M172.62,60.92V27.7h11.8v33.22H172.62z"/>
  <path d="M225.59,26.69c-5.56,0-10.56,2.38-14.06,6.17v-5.17h-11.8v57.13h11.8V58.04c0.03-0.68,0.14-1.36,0.33-2.02c0.44-1.52,1.22-2.91,2.29-4.08c1.06-1.17,2.39-2.09,3.86-2.69c1.47-0.61,3.05-0.88,4.63-0.81c1.58,0.07,3.13,0.48,4.54,1.2c1.41,0.72,2.65,1.74,3.6,3c0.96,1.26,1.63,2.72,1.97,4.27c0.35,1.55,0.36,3.14,0.05,4.69c-0.32,1.55-0.96,3.01-1.88,4.3c-0.92,1.29-2.13,2.35-3.52,3.11c-1.39,0.76-2.92,1.21-4.5,1.33c-1.57,0.11-3.16-0.11-4.64-0.66v11.98c1.93,0.59,3.94,0.89,5.96,0.89c3.59,0,7.12-0.95,10.21-2.75c3.09-1.8,5.67-4.39,7.49-7.48c1.82-3.09,2.81-6.59,2.87-10.18c0.06-3.59-0.83-7.12-2.55-10.27c-1.73-3.15-4.22-5.83-7.24-7.74C232.8,27.65,229.23,26.63,225.59,26.69z"/>
  <path d="M279.66,26.69c-5.56,0-10.56,2.38-14.06,6.17v-5.17h-11.8v57.13h11.8V58.04c0.03-0.68,0.14-1.36,0.33-2.02c0.44-1.52,1.22-2.91,2.29-4.08c1.06-1.17,2.39-2.09,3.86-2.69c1.47-0.61,3.05-0.88,4.63-0.81c1.58,0.07,3.13,0.48,4.54,1.2c1.41,0.72,2.65,1.74,3.6,3c0.96,1.26,1.63,2.72,1.97,4.27c0.35,1.55,0.36,3.14,0.05,4.69c-0.32,1.55-0.96,3.01-1.88,4.3c-0.92,1.29-2.13,2.35-3.52,3.11c-1.39,0.76-2.92,1.21-4.5,1.33c-1.57,0.11-3.16-0.11-4.64-0.66v11.98c1.93,0.59,3.94,0.89,5.96,0.89c3.59,0,7.12-0.95,10.21-2.75c3.09-1.8,5.67-4.39,7.49-7.48c1.82-3.09,2.81-6.59,2.87-10.18c0.06-3.59-0.83-7.12-2.55-10.27c-1.73-3.15-4.22-5.83-7.24-7.74C286.87,27.65,283.3,26.63,279.66,26.69z"/>
  <path d="M512,39.01c0-15.63-13.7-28.13-30.63-28.13c-16.92,0-30.63,12.5-30.63,28.13v21.91h-9.22V39.01c0-20.68,17.84-37.33,39.85-37.33c22.01,0,39.85,16.65,39.85,37.33v21.91H512V39.01z"/>
  <path d="M459.42,60.92h13.13V48.8c0-4.32,4-7.83,8.94-7.83s8.94,3.51,8.94,7.83v12.13h13.13V48.8c0-10.71-9.91-19.43-22.07-19.43s-22.07,8.72-22.07,19.43V60.92z"/>
  <path d="M344.21,60.92V26.7h11.8v5.17c0.59-0.77,1.22-1.5,1.9-2.17c1.95-1.93,4.24-3.47,6.75-4.54c2.51-1.06,5.21-1.64,7.94-1.68c2.73-0.05,5.44,0.42,7.99,1.39c2.55,0.97,4.89,2.42,6.91,4.27c2.02,1.85,3.63,4.06,4.75,6.49c1.12,2.43,1.73,5.05,1.79,7.71c0.06,2.65-0.43,5.3-1.45,7.77c-1.01,2.47-2.52,4.75-4.44,6.67c-1.92,1.93-4.19,3.46-6.69,4.53c-2.5,1.06-5.18,1.65-7.91,1.71c-4.8,0.1-9.48-1.55-13.2-4.65v18.45h-15.14V60.92z M374.89,49.76c3.66,0.03,7.16-1.44,9.75-4.05c2.59-2.61,4.05-6.12,4.05-9.79c0-3.67-1.46-7.18-4.05-9.79c-2.59-2.61-6.09-4.07-9.75-4.05c-3.64-0.04-7.13,1.43-9.69,4.05c-2.56,2.61-4,6.13-3.98,9.8c-0.02,3.67,1.42,7.19,3.98,9.8C367.76,48.33,371.25,49.8,374.89,49.76z"/>
  <path d="M423.11,10.88V60.5h-11.8V10.88H423.11z"/>
</svg>
